# xmcd
#
# Track frame offsets: 
#        150
#        17463
#        35858
#
# Disc length: 647 seconds
#
# Revision: 2
# Processed by: cddbd v1.5.2PL0 Copyright (c) Steve Scherf et al.
# Submitted via: ExactAudioCopy v0.99pb4
#
DISCID=1c028503
DTITLE=Smashing Pumpkins - Tarantula
DYEAR=2007
DGENRE=Rock
TTITLE0=Tarantula
TTITLE1=Death from above
TTITLE2=Zeitgeist
EXTD=
EXTT0=
EXTT1=
EXTT2=
PLAYORDER=
